<svg width="19" height="19" viewBox="0 0 19 19" fill="none" xmlns="http://www.w3.org/2000/svg">
<path d="M3.72667 1L1 4.272V15.724C1 16.1579 1.19152 16.574 1.53241 16.8808C1.87331 17.1876 2.33567 17.36 2.81778 17.36H15.5422C16.0243 17.36 16.4867 17.1876 16.8276 16.8808C17.1685 16.574 17.36 16.1579 17.36 15.724V4.272L14.6333 1H3.72667Z" stroke="url(#paint0_linear_252_308)" stroke-width="2" stroke-linecap="round" stroke-linejoin="round"/>
<path d="M1 4.27197H17.36" stroke="url(#paint1_linear_252_308)" stroke-width="2" stroke-linecap="round" stroke-linejoin="round"/>
<path d="M12.8155 7.54401C12.8155 8.41179 12.4325 9.24404 11.7507 9.85766C11.0689 10.4713 10.1442 10.816 9.17999 10.816C8.21578 10.816 7.29106 10.4713 6.60926 9.85766C5.92746 9.24404 5.54443 8.41179 5.54443 7.54401" stroke="url(#paint2_linear_252_308)" stroke-width="2" stroke-linecap="round" stroke-linejoin="round"/>
<defs>
<linearGradient id="paint0_linear_252_308" x1="9.18" y1="1" x2="9.18" y2="17.36" gradientUnits="userSpaceOnUse">
<stop stop-color="#A259FF"/>
<stop offset="1" stop-color="#613599"/>
</linearGradient>
<linearGradient id="paint1_linear_252_308" x1="9.18" y1="4.27197" x2="9.18" y2="5.27197" gradientUnits="userSpaceOnUse">
<stop stop-color="#A259FF"/>
<stop offset="1" stop-color="#613599"/>
</linearGradient>
<linearGradient id="paint2_linear_252_308" x1="9.17999" y1="7.54401" x2="9.17999" y2="10.816" gradientUnits="userSpaceOnUse">
<stop stop-color="#A259FF"/>
<stop offset="1" stop-color="#613599"/>
</linearGradient>
</defs>
</svg>
