<svg width="15" height="4" viewBox="0 0 15 4" fill="none" xmlns="http://www.w3.org/2000/svg">
<path d="M7.97591 2.75C8.39179 2.75 8.72892 2.41421 8.72892 2C8.72892 1.58579 8.39179 1.25 7.97591 1.25C7.56004 1.25 7.2229 1.58579 7.2229 2C7.2229 2.41421 7.56004 2.75 7.97591 2.75Z" stroke="black" stroke-width="2" stroke-linecap="round" stroke-linejoin="round"/>
<path d="M13.2472 2.75C13.663 2.75 14.0002 2.41421 14.0002 2C14.0002 1.58579 13.663 1.25 13.2472 1.25C12.8313 1.25 12.4941 1.58579 12.4941 2C12.4941 2.41421 12.8313 2.75 13.2472 2.75Z" stroke="black" stroke-width="2" stroke-linecap="round" stroke-linejoin="round"/>
<path d="M2.70492 2.75C3.12079 2.75 3.45793 2.41421 3.45793 2C3.45793 1.58579 3.12079 1.25 2.70492 1.25C2.28904 1.25 1.9519 1.58579 1.9519 2C1.9519 2.41421 2.28904 2.75 2.70492 2.75Z" stroke="black" stroke-width="2" stroke-linecap="round" stroke-linejoin="round"/>
</svg>
